<svg xmlns="http://www.w3.org/2000/svg" version="1.1" xmlns:xlink="http://www.w3.org/1999/xlink" viewBox="0 0 200 200"><rect width="200" height="200" fill="url('#gradient')"></rect><defs><linearGradient id="gradient" gradientTransform="rotate(45 0.5 0.5)"><stop offset="0%" stop-color="#efe667"></stop><stop offset="100%" stop-color="#42e374"></stop></linearGradient></defs><g><g fill="#1b3855" transform="matrix(2.008244946968181,0,0,2.008244946968181,0.649466975887016,114.86335597294962)" stroke="#0e5278" stroke-width="0"><path d="M9.17-4.81L12.58-4.81Q12.51-3.33 11.78-2.19Q11.04-1.05 9.72-0.43Q8.40 0.20 6.70 0.20L6.70 0.20Q3.90 0.20 2.29-1.63Q0.67-3.46 0.67-6.79L0.67-6.79L0.67-7.49Q0.67-9.58 1.40-11.15Q2.13-12.71 3.50-13.57Q4.86-14.42 6.66-14.42L6.66-14.42Q9.25-14.42 10.82-13.06Q12.39-11.70 12.61-9.31L12.61-9.31L9.19-9.31Q9.15-10.61 8.54-11.17Q7.92-11.74 6.66-11.74L6.66-11.74Q5.38-11.74 4.79-10.78Q4.19-9.82 4.16-7.72L4.16-7.72L4.16-6.72Q4.16-4.44 4.73-3.47Q5.30-2.49 6.70-2.49L6.70-2.49Q7.88-2.49 8.51-3.05Q9.13-3.60 9.17-4.81L9.17-4.81ZM13.64-4.82L13.63-5.38Q13.63-6.96 14.25-8.20Q14.86-9.43 16.02-10.10Q17.17-10.76 18.72-10.76L18.72-10.76Q21.09-10.76 22.46-9.29Q23.83-7.82 23.83-5.29L23.83-5.29L23.83-5.18Q23.83-2.71 22.46-1.25Q21.08 0.20 18.74 0.20L18.74 0.20Q16.48 0.20 15.12-1.16Q13.75-2.51 13.64-4.82L13.64-4.82ZM16.93-5.77L16.92-5.18Q16.92-3.71 17.38-3.03Q17.84-2.34 18.74-2.34L18.74-2.34Q20.50-2.34 20.54-5.05L20.54-5.05L20.54-5.38Q20.54-8.22 18.72-8.22L18.72-8.22Q17.07-8.22 16.93-5.77L16.93-5.77ZM24.86-5.36L24.86-5.36Q24.86-7.87 25.95-9.32Q27.03-10.76 28.97-10.76L28.97-10.76Q30.39-10.76 31.36-9.65L31.36-9.65L31.36-15L34.66-15L34.66 0L31.70 0L31.53-1.13Q30.52 0.20 28.96 0.20L28.96 0.20Q27.07 0.20 25.97-1.25Q24.86-2.70 24.86-5.36ZM28.16-5.76L28.15-5.16Q28.15-2.34 29.79-2.34L29.79-2.34Q30.89-2.34 31.36-3.26L31.36-3.26L31.36-7.29Q30.91-8.22 29.81-8.22L29.81-8.22Q28.29-8.22 28.16-5.76L28.16-5.76ZM41.64 0.20L41.64 0.20Q39.21 0.20 37.71-1.25Q36.20-2.71 36.20-5.03L36.20-5.03L36.20-5.30Q36.20-6.92 36.80-8.16Q37.40-9.40 38.55-10.08Q39.71-10.76 41.29-10.76L41.29-10.76Q43.52-10.76 44.80-9.38Q46.09-8.00 46.09-5.53L46.09-5.53L46.09-4.25L39.55-4.25Q39.73-3.36 40.32-2.85Q40.92-2.34 41.87-2.34L41.87-2.34Q43.43-2.34 44.31-3.44L44.31-3.44L45.81-1.66Q45.20-0.81 44.07-0.31Q42.94 0.20 41.64 0.20ZM41.27-8.22L41.27-8.22Q39.82-8.22 39.55-6.31L39.55-6.31L42.87-6.31L42.87-6.56Q42.89-7.35 42.47-7.79Q42.05-8.22 41.27-8.22ZM55.36 0L52.85-5.02L51.00-5.02L51.00 0L47.57 0L47.57-14.22L53.16-14.22Q55.69-14.22 57.12-13.10Q58.54-11.97 58.54-9.92L58.54-9.92Q58.54-8.44 57.94-7.46Q57.34-6.48 56.06-5.88L56.06-5.88L59.03-0.15L59.03 0L55.36 0ZM51.00-11.57L51.00-7.67L53.16-7.67Q54.14-7.67 54.63-8.18Q55.13-8.69 55.13-9.61Q55.13-10.53 54.63-11.05Q54.13-11.57 53.16-11.57L53.16-11.57L51.00-11.57ZM60.06-4.82L60.05-5.38Q60.05-6.96 60.66-8.20Q61.28-9.43 62.43-10.10Q63.58-10.76 65.14-10.76L65.14-10.76Q67.51-10.76 68.88-9.29Q70.24-7.82 70.24-5.29L70.24-5.29L70.24-5.18Q70.24-2.71 68.87-1.25Q67.50 0.20 65.16 0.20L65.16 0.20Q62.90 0.20 61.53-1.16Q60.17-2.51 60.06-4.82L60.06-4.82ZM63.35-5.77L63.34-5.18Q63.34-3.71 63.80-3.03Q64.26-2.34 65.16-2.34L65.16-2.34Q66.91-2.34 66.95-5.05L66.95-5.05L66.95-5.38Q66.95-8.22 65.14-8.22L65.14-8.22Q63.49-8.22 63.35-5.77L63.35-5.77ZM71.29-4.82L71.28-5.38Q71.28-6.96 71.89-8.20Q72.51-9.43 73.66-10.10Q74.81-10.76 76.37-10.76L76.37-10.76Q78.74-10.76 80.11-9.29Q81.47-7.82 81.47-5.29L81.47-5.29L81.47-5.18Q81.47-2.71 80.10-1.25Q78.73 0.20 76.39 0.20L76.39 0.20Q74.13 0.20 72.76-1.16Q71.40-2.51 71.29-4.82L71.29-4.82ZM74.58-5.77L74.57-5.18Q74.57-3.71 75.03-3.03Q75.49-2.34 76.39-2.34L76.39-2.34Q78.14-2.34 78.18-5.05L78.18-5.05L78.18-5.38Q78.18-8.22 76.37-8.22L76.37-8.22Q74.72-8.22 74.58-5.77L74.58-5.77ZM82.95-10.57L86.04-10.57L86.14-9.33Q87.27-10.76 89.16-10.76L89.16-10.76Q91.16-10.76 91.87-9.17L91.87-9.17Q92.94-10.76 94.97-10.76L94.97-10.76Q98.18-10.76 98.27-6.88L98.27-6.88L98.27 0L94.97 0L94.97-6.67Q94.97-7.48 94.70-7.85Q94.42-8.22 93.70-8.22L93.70-8.22Q92.72-8.22 92.25-7.35L92.25-7.35L92.26-7.22L92.26 0L88.96 0L88.96-6.65Q88.96-7.48 88.69-7.85Q88.43-8.22 87.69-8.22L87.69-8.22Q86.74-8.22 86.24-7.35L86.24-7.35L86.24 0L82.95 0L82.95-10.57Z"></path></g></g></svg>